<?xml version="1.0" encoding="utf-8"?>
<!-- Generator: Adobe Illustrator 23.0.6, SVG Export Plug-In . SVG Version: 6.00 Build 0)  -->
<svg version="1.1" id="Layer_1" xmlns="http://www.w3.org/2000/svg" xmlns:xlink="http://www.w3.org/1999/xlink" x="0px" y="0px"
	 viewBox="0 0 112 104" style="enable-background:new 0 0 112 104;" xml:space="preserve">
<style type="text/css">
	.st0{fill:#002B49;}
	.st1{fill:#6EC4DB;}
	.st2{fill:#0187BD;}
	.st3{fill:#005B99;}
	.st4{fill:none;}
</style>
<g>
	<g>
		<path class="st0" d="M8.9,84c1.3,0,2.5,0.3,3.4,0.9c0.4,0.2,0.8,0.5,1.3,1c0.5,0.6,0.9,1,1.1,1.4c0.5,1,0.8,2,0.8,3v0.3
			c0,1.3-0.5,2.6-1.4,3.9c-0.5,0.5-0.9,0.9-1.2,1.1l-0.5,0.3l4.2,7.7h-5.5l-3.7-6.8h-2v6.8H0.3V84L8.9,84L8.9,84z M5.4,88.1v4.4h2.7
			c1.1,0,1.8-0.5,2.2-1.5c0.1-0.3,0.1-0.5,0.1-0.7c0-0.7-0.3-1.3-0.9-1.8c-0.4-0.3-0.9-0.4-1.6-0.4H5.4z"/>
		<path class="st0" d="M17.5,84h14.2v4.4h-9.1v3.3h7.1v4.4h-7.1v3h9.1v4.4H17.5V84z"/>
		<path class="st0" d="M41.1,83.9l3.6,12.4l3.5-12.4H54l2.4,19.6h-5l-1.4-11.1l-3.1,11.1h-4.2l-3.1-10.7l-1.3,10.7h-5.1l2.2-19.6
			L41.1,83.9L41.1,83.9z"/>
		<path class="st0" d="M64.2,84H69l7.4,19.6h-4.8l-1.3-3.3H63l-1.3,3.3h-4.8L64.2,84z M66.6,90.5l-2.1,5.6h4.2L66.6,90.5z"/>
		<path class="st0" d="M85.5,84c1.3,0,2.5,0.3,3.4,0.9c0.4,0.2,0.8,0.5,1.3,1c0.5,0.6,0.9,1,1.1,1.4c0.5,1,0.8,2,0.8,3v0.3
			c0,1.3-0.5,2.6-1.4,3.9c-0.5,0.5-0.9,0.9-1.2,1.1L89,95.8l4.2,7.7h-5.5L84,96.7h-2v6.8h-5.1V84L85.5,84L85.5,84z M82,88.1v4.4h2.7
			c1.1,0,1.8-0.5,2.2-1.5c0.1-0.3,0.1-0.5,0.1-0.7c0-0.7-0.3-1.3-0.9-1.8c-0.4-0.3-0.9-0.4-1.6-0.4H82z"/>
		<path class="st0" d="M94.1,84h5.1v7.8c0.3-0.3,2.4-2.9,6.2-7.8h5.8l-6.6,8.5l7.3,11.1h-6.1c-0.2-0.3-1.6-2.3-4.1-6.1l-0.5-0.6
			l-2,2.5v4.2h-5.1L94.1,84L94.1,84z"/>
	</g>
	<g>
		<polygon id="polygon4" class="st1" points="86.5,55.3 59.1,37.6 86.5,22.4 		"/>
		<polygon id="polygon6" class="st2" points="86.5,55.3 56.7,71.8 26.7,55.4 59.1,37.6 		"/>
		<g id="g10" transform="matrix(1.0489868,0,0,1,4.6059263,-3.58)">
			<polyline id="polyline8" class="st3" points="21.1,59 21.1,26.1 49.5,9.6 78.1,26 			"/>
		</g>
		<g id="g14" transform="matrix(1.0489868,0,0,1,4.6059263,-3.58)">
			<line id="line12" class="st4" x1="74.3" y1="27.4" x2="24.9" y2="57.6"/>
		</g>
		<g id="g18" transform="matrix(1.0489868,0,0,1,4.6059263,-3.58)">
			<line id="line16" class="st4" x1="51.9" y1="41.1" x2="78.1" y2="58.9"/>
		</g>
		<path id="path20" class="st0" d="M90.8,20L56.6,1.3L22.4,20.1l0.1,37.6l34.2,18.8l34.2-18.9L90.8,20z M82.2,47.6l-15.3-9.9
			l15.3-8.9L82.2,47.6z M56.6,10.7l20.7,11.4L31,49l0-24.2L56.6,10.7z M56.7,67.1L35.9,55.7l23-13.4l19.6,12.7L56.7,67.1z"/>
	</g>
</g>
</svg>
