<?xml version="1.0" encoding="utf-8"?>
<!-- Generator: Adobe Illustrator 23.0.6, SVG Export Plug-In . SVG Version: 6.00 Build 0)  -->
<svg version="1.1" id="Layer_1" xmlns="http://www.w3.org/2000/svg" xmlns:xlink="http://www.w3.org/1999/xlink" x="0px" y="0px"
	 viewBox="0 0 318.4 291.8" style="enable-background:new 0 0 318.4 291.8;" xml:space="preserve">
<style type="text/css">
	.st0{fill:#002B49;}
	.st1{fill:#6EC4DB;}
	.st2{fill:#0187BD;}
	.st3{fill:#005B99;}
	.st4{fill:none;}
</style>
<title>alt black logotype</title>
<desc>Created with Sketch.</desc>
<g>
	<g>
		<path class="st0" d="M24.4,235.9c3.8,0,7.1,0.8,9.8,2.5c1,0.6,2.3,1.5,3.7,2.8c1.5,1.6,2.5,2.9,3.1,4c1.5,2.8,2.3,5.7,2.3,8.4v0.8
			c0,3.8-1.4,7.5-4.1,11.1c-1.3,1.5-2.5,2.6-3.5,3.3l-1.3,0.9l12.1,22.1H30.9l-10.6-19.5h-5.7v19.5H0v-55.9L24.4,235.9L24.4,235.9z
			 M14.6,247.8v12.6h7.7c3,0,5.1-1.4,6.3-4.3c0.3-0.8,0.4-1.5,0.4-2c0-2-0.9-3.7-2.6-5.1c-1.1-0.8-2.5-1.3-4.5-1.3H14.6z"/>
		<path class="st0" d="M49.1,235.9h40.6v12.7h-26v9.5h20.3v12.6H63.6v8.6h26v12.4H49.1V235.9z"/>
		<path class="st0" d="M116.5,235.9l10.1,35.4l10-35.4h16.7l6.7,55.9h-14.4l-4-31.6l-8.8,31.6h-12.1l-8.8-30.6l-3.7,30.6H93.6
			l6.4-55.9L116.5,235.9L116.5,235.9z"/>
		<path class="st0" d="M182.4,235.9h13.6l21.1,55.9h-13.8l-3.7-9.4h-20.7l-3.8,9.4h-13.8L182.4,235.9z M189.1,254.7l-5.9,15.9H195
			L189.1,254.7z"/>
		<path class="st0" d="M243.1,235.9c3.8,0,7.1,0.8,9.8,2.5c1,0.6,2.3,1.5,3.7,2.8c1.5,1.6,2.5,2.9,3.1,4c1.5,2.8,2.3,5.7,2.3,8.4
			v0.8c0,3.8-1.4,7.5-4.1,11.1c-1.3,1.5-2.5,2.6-3.5,3.3l-1.3,0.9l12.1,22.1h-15.6L239,272.3h-5.7v19.5h-14.6v-55.9L243.1,235.9
			L243.1,235.9z M233.3,247.8v12.6h7.7c3,0,5.1-1.4,6.3-4.3c0.3-0.8,0.4-1.5,0.4-2c0-2-0.9-3.7-2.6-5.1c-1.1-0.8-2.5-1.3-4.5-1.3
			H233.3z"/>
		<path class="st0" d="M267.8,235.9h14.6v22.2c1-1,6.9-8.4,17.6-22.2h16.4l-18.9,24.3l20.9,31.6h-17.5c-0.7-0.8-4.6-6.6-11.7-17.4
			l-1.3-1.7l-5.6,7.2v11.9h-14.6L267.8,235.9L267.8,235.9z"/>
	</g>
	<g>
		<polygon id="polygon4" class="st1" points="246.1,154.2 167.7,103.5 246,60.3 		"/>
		<polygon id="polygon6" class="st2" points="246.1,154.2 160.8,201.3 75.5,154.5 167.7,103.5 		"/>
		<g id="g10" transform="matrix(1.0489868,0,0,1,4.6059263,-3.58)">
			<polyline id="polyline8" class="st3" points="67.5,158 67.4,64.1 148.7,17 230.1,63.9 			"/>
		</g>
		<g id="g14" transform="matrix(1.0489868,0,0,1,4.6059263,-3.58)">
			<line id="line12" class="st4" x1="219.3" y1="67.9" x2="78.3" y2="154"/>
		</g>
		<g id="g18" transform="matrix(1.0489868,0,0,1,4.6059263,-3.58)">
			<line id="line16" class="st4" x1="155.4" y1="106.9" x2="230.2" y2="157.8"/>
		</g>
		<path id="path20" class="st0" d="M258.2,53.6L160.5,0L63.1,53.8l0.2,107.4l97.6,53.6l97.5-53.8L258.2,53.6z M233.8,132.2
			l-43.7-28.3l43.6-25.4L233.8,132.2z M160.6,26.9l59.1,32.4L87.7,136.2l-0.1-69L160.6,26.9z M160.8,187.8l-59.1-32.4l65.6-38.2
			l55.9,36.2L160.8,187.8z"/>
	</g>
</g>
</svg>
