<?xml version="1.0" encoding="utf-8"?>
<!-- Generator: Adobe Illustrator 23.0.6, SVG Export Plug-In . SVG Version: 6.00 Build 0)  -->
<svg version="1.1" id="Layer_1" xmlns="http://www.w3.org/2000/svg" xmlns:xlink="http://www.w3.org/1999/xlink" x="0px" y="0px"
	 viewBox="0 0 334 293" style="enable-background:new 0 0 334 293;" xml:space="preserve">
<style type="text/css">
	.st0{fill:#002B49;}
	.st1{fill:#6EC4DB;}
	.st2{fill:#0187BD;}
	.st3{fill:#005B99;}
	.st4{fill:none;}
</style>
<title>animatedLogo-0</title>
<desc>Created with Sketch.</desc>
<g>
	<g>
		<path class="st0" d="M33.2,237c3.8,0,7.1,0.8,9.8,2.5c1,0.6,2.3,1.5,3.7,2.8c1.5,1.6,2.5,2.9,3.1,4c1.5,2.8,2.3,5.7,2.3,8.4v0.8
			c0,3.8-1.4,7.5-4.1,11.1c-1.3,1.5-2.5,2.6-3.5,3.3l-1.3,0.9l12.1,22.1H39.7l-10.6-19.5h-5.7v19.5H8.8V237L33.2,237L33.2,237z
			 M23.4,248.9v12.6H31c3,0,5.1-1.4,6.3-4.3c0.3-0.8,0.4-1.5,0.4-2c0-2-0.9-3.7-2.6-5.1c-1.1-0.8-2.5-1.3-4.5-1.3H23.4z"/>
		<path class="st0" d="M57.9,237h40.6v12.6h-26v9.5h20.3v12.6H72.4v8.6h26v12.4H57.9V237z"/>
		<path class="st0" d="M125.3,237l10.1,35.4l10-35.4h16.7l6.7,55.9h-14.4l-4-31.6l-8.8,31.6h-12.1l-8.8-30.6l-3.7,30.6h-14.6
			l6.4-55.9L125.3,237L125.3,237z"/>
		<path class="st0" d="M191.2,237h13.6l21.1,55.9h-13.8l-3.7-9.4h-20.7l-3.8,9.4h-13.8L191.2,237z M197.9,255.8l-5.9,15.9h11.9
			L197.9,255.8z"/>
		<path class="st0" d="M251.9,237c3.8,0,7.1,0.8,9.8,2.5c1,0.6,2.3,1.5,3.7,2.8c1.5,1.6,2.5,2.9,3.1,4c1.5,2.8,2.3,5.7,2.3,8.4v0.8
			c0,3.8-1.4,7.5-4.1,11.1c-1.3,1.5-2.5,2.6-3.5,3.3l-1.3,0.9l12.1,22.1h-15.6l-10.6-19.5h-5.7v19.5h-14.6V237L251.9,237L251.9,237z
			 M242.1,248.9v12.6h7.7c3,0,5.1-1.4,6.3-4.3c0.3-0.8,0.4-1.5,0.4-2c0-2-0.9-3.7-2.6-5.1c-1.1-0.8-2.5-1.3-4.5-1.3H242.1z"/>
		<path class="st0" d="M276.6,237h14.6v22.2c1-1,6.9-8.4,17.6-22.2h16.4l-18.9,24.3l20.9,31.6h-17.5c-0.7-0.8-4.6-6.6-11.7-17.4
			l-1.3-1.7l-5.6,7.2v11.9h-14.6L276.6,237L276.6,237z"/>
	</g>
	<g>
		<polygon id="polygon4" class="st1" points="254.9,155.3 176.5,104.6 254.8,61.4 		"/>
		<polygon id="polygon6" class="st2" points="254.9,155.3 169.7,202.4 84.3,155.5 176.5,104.6 		"/>
		<g id="g10" transform="matrix(1.0489868,0,0,1,4.6059263,-3.58)">
			<polyline id="polyline8" class="st3" points="75.9,159.1 75.8,65.2 157.1,18.1 238.5,65 			"/>
		</g>
		<g id="g14" transform="matrix(1.0489868,0,0,1,4.6059263,-3.58)">
			<line id="line12" class="st4" x1="227.7" y1="69" x2="86.7" y2="155.1"/>
		</g>
		<g id="g18" transform="matrix(1.0489868,0,0,1,4.6059263,-3.58)">
			<line id="line16" class="st4" x1="163.8" y1="108" x2="238.6" y2="158.9"/>
		</g>
		<path id="path20" class="st0" d="M267,54.6L169.4,1.1L71.9,54.9l0.2,107.4l97.6,53.6l97.5-53.8L267,54.6z M242.6,133.3L199,105
			l43.6-25.4L242.6,133.3z M169.4,28l59.1,32.4L96.5,137.3l-0.1-69L169.4,28z M169.6,188.9l-59.1-32.4l65.6-38.2l55.9,36.2
			L169.6,188.9z"/>
	</g>
</g>
</svg>
